<?xml version="1.0" encoding="UTF-8"?>
<svg id="Layer_1" data-name="Layer 1" xmlns="http://www.w3.org/2000/svg" version="1.1" viewBox="0 0 800 600">
  <g>
    <path id="dot-0" d="M160.68,378.47c0,9.55-7.74,17.29-17.29,17.29s-17.29-7.74-17.29-17.29,7.74-17.29,17.29-17.29,17.29,7.74,17.29,17.29" vector-effect="non-scaling-stroke" fill="#0e8bcd" fill-opacity=".5" stroke-width="0"/>
    <path id="dot-1" d="M171.2,213.67c0,15.36-12.45,27.82-27.81,27.82-15.36,0-27.82-12.45-27.82-27.81h0c0-15.37,12.45-27.82,27.81-27.83,15.36,0,27.82,12.45,27.82,27.81h0" vector-effect="non-scaling-stroke" fill="#0e8bcd" fill-opacity=".5" stroke-width="0"/>
    <path id="dot-2" d="M229.51,378.47c0,8.82-7.15,15.97-15.97,15.97s-15.97-7.15-15.97-15.97,7.15-15.97,15.97-15.97,15.97,7.15,15.97,15.97" vector-effect="non-scaling-stroke" fill="#003d2b" fill-opacity=".5" stroke-width="0"/>
    <path id="dot-3" d="M243.2,213.67c0,16.38-13.27,29.65-29.65,29.66-16.38,0-29.65-13.27-29.66-29.65h0c0-16.39,13.27-29.66,29.65-29.67,16.38,0,29.65,13.27,29.66,29.65h0" vector-effect="non-scaling-stroke" fill="#003d2b" fill-opacity=".5" stroke-width="0"/>
    <path id="dot-4" d="M298.19,378.47c0,8.02-6.5,14.53-14.53,14.53s-14.53-6.5-14.53-14.53h0c0-8.02,6.5-14.53,14.53-14.53s14.53,6.5,14.53,14.53h0" vector-effect="non-scaling-stroke" fill="#e1b52f" fill-opacity=".5" stroke-width="0"/>
    <path id="dot-5" d="M317.12,213.67c0,18.48-14.98,33.46-33.46,33.46s-33.46-14.98-33.46-33.46,14.98-33.46,33.46-33.46,33.46,14.98,33.46,33.46" vector-effect="non-scaling-stroke" fill="#e1b52f" fill-opacity=".5" stroke-width="0"/>
    <path id="dot-6" d="M361.24,378.47c0,4.12-3.34,7.46-7.46,7.46s-7.46-3.34-7.46-7.46,3.34-7.46,7.46-7.46,7.46,3.34,7.46,7.46" vector-effect="non-scaling-stroke" fill="#cb026e" fill-opacity=".5" stroke-width="0"/>
    <path id="dot-7" d="M389.11,213.67c0,19.51-15.81,35.34-35.33,35.34-19.51,0-35.34-15.81-35.34-35.33h0c0-19.52,15.81-35.35,35.33-35.35,19.51,0,35.34,15.81,35.34,35.33h0" vector-effect="non-scaling-stroke" fill="#cb026e" fill-opacity=".5" stroke-width="0"/>
    <path id="dot-8" d="M427.32,378.47c0,1.89-1.53,3.42-3.42,3.42-1.89,0-3.42-1.53-3.42-3.42h0c0-1.89,1.53-3.43,3.42-3.43,1.89,0,3.42,1.53,3.42,3.42h0" vector-effect="non-scaling-stroke" fill="#919191" fill-opacity=".5" stroke-width="0"/>
    <path id="dot-9" d="M462.71,213.67c0,21.44-17.37,38.82-38.8,38.82-21.44,0-38.82-17.37-38.82-38.8h0c0-21.45,17.37-38.83,38.8-38.83,21.44,0,38.82,17.37,38.82,38.8h0" vector-effect="non-scaling-stroke" fill="#919191" fill-opacity=".5" stroke-width="0"/>
    <path id="dot-10" d="M497.48,378.47c0,1.89-1.53,3.42-3.42,3.42-1.89,0-3.42-1.53-3.42-3.42h0c0-1.89,1.53-3.43,3.42-3.43,1.89,0,3.42,1.53,3.42,3.42h0" vector-effect="non-scaling-stroke" fill="#5b8f77" fill-opacity=".5" stroke-width="0"/>
    <path id="dot-11" d="M534.67,213.67c0,22.43-18.19,40.62-40.62,40.62s-40.62-18.19-40.62-40.62,18.19-40.62,40.62-40.62,40.62,18.19,40.62,40.62" vector-effect="non-scaling-stroke" fill="#5b8f77" fill-opacity=".5" stroke-width="0"/>
    <path id="dot-12" d="M564.17,378.47" vector-effect="non-scaling-stroke" fill="#01608a" fill-opacity=".5" stroke-width="0"/>
    <path id="dot-13" d="M604.25,213.67c0,22.13-17.94,40.08-40.08,40.08s-40.08-17.94-40.08-40.08,17.94-40.08,40.08-40.08,40.08,17.94,40.08,40.08" vector-effect="non-scaling-stroke" fill="#01608a" fill-opacity=".5" stroke-width="0"/>
    <path id="dot-14" d="M634.29,378.47" vector-effect="non-scaling-stroke" fill="#d86c01" fill-opacity=".5" stroke-width="0"/>
    <path id="dot-15" d="M676.57,213.67c0,23.35-18.93,42.28-42.28,42.28s-42.28-18.93-42.28-42.28,18.93-42.28,42.28-42.28,42.28,18.93,42.28,42.28" vector-effect="non-scaling-stroke" fill="#d86c01" fill-opacity=".5" stroke-width="0"/>
    <path id="dot-16" d="M704.41,378.47" vector-effect="non-scaling-stroke" fill="#8b3076" fill-opacity=".5" stroke-width="0"/>
    <path id="dot-17" d="M749.11,213.67c0,24.69-20.02,44.71-44.71,44.71s-44.71-20.02-44.71-44.71,20.02-44.71,44.71-44.71,44.71,20.02,44.71,44.71" vector-effect="non-scaling-stroke" fill="#8b3076" fill-opacity=".5" stroke-width="0"/>
  </g>
  <line x1="142.55" y1="214.13" x2="705.67" y2="214.13" fill="#fff" opacity=".5" stroke="#003d2b" stroke-miterlimit="10" stroke-width=".5"/>
  <line x1="142.13" y1="378.86" x2="705.25" y2="378.86" fill="#fff" opacity=".5" stroke="#003d2b" stroke-miterlimit="10" stroke-width=".5"/>
  <g>
    <path d="M133.95,295.73h2.17v9.5h-1.23v-8.42h-.94v-1.09Z" fill="#0e8bcd" opacity=".5" stroke-width="0"/>
    <path d="M139.93,305.24h-1.37l.92-1.85c.16-.34.33-.68.49-1.04s.32-.73.48-1.11c-.32.25-.64.38-.98.38-.56,0-.98-.23-1.24-.68-.27-.45-.4-1.16-.4-2.11,0-1.15.16-1.97.47-2.47.31-.5.83-.74,1.56-.74s1.26.25,1.58.75c.32.5.47,1.33.47,2.5,0,.86-.1,1.66-.3,2.39-.09.36-.23.76-.41,1.21-.18.45-.4.95-.66,1.5l-.5,1.04-.11.23ZM140.65,298.66c0-1.25-.27-1.88-.81-1.88s-.8.62-.8,1.85c0,.65.06,1.12.19,1.41.12.29.33.44.61.44s.49-.14.62-.43c.13-.29.19-.75.19-1.39Z" fill="#0e8bcd" opacity=".5" stroke-width="0"/>
    <path d="M146.01,300.08c.43.16.72.4.88.75.16.34.24.89.24,1.66,0,.98-.17,1.71-.5,2.17-.33.46-.85.7-1.55.7s-1.23-.23-1.56-.7-.5-1.19-.5-2.17c0-.76.08-1.32.24-1.66.16-.34.45-.59.88-.75-.38-.16-.64-.41-.8-.73-.16-.34-.23-.81-.23-1.4,0-.41.04-.76.11-1.05.08-.3.19-.54.35-.73s.36-.33.61-.42c.25-.09.54-.14.89-.14s.64.05.89.14c.25.09.45.23.61.42.16.19.28.43.35.73.08.3.11.65.11,1.05,0,.59-.08,1.05-.23,1.4-.16.32-.42.56-.8.73ZM145.87,302.63c0-.33-.01-.62-.04-.85-.03-.24-.08-.43-.14-.58-.07-.15-.15-.26-.25-.33-.1-.07-.22-.1-.36-.1-.27,0-.47.14-.6.42-.12.28-.19.74-.19,1.37,0,1.1.26,1.66.79,1.66s.79-.53.79-1.59ZM145.78,298.06c0-.89-.24-1.34-.71-1.34s-.7.44-.7,1.33c0,.98.24,1.48.71,1.48s.7-.49.7-1.47Z" fill="#0e8bcd" opacity=".5" stroke-width="0"/>
    <path d="M152.44,300.56c0,1.71-.16,2.94-.49,3.69-.32.73-.88,1.1-1.66,1.1s-1.33-.37-1.66-1.1c-.32-.71-.49-1.97-.49-3.76s.16-3.05.49-3.76c.32-.74.88-1.11,1.66-1.11.72,0,1.26.32,1.6.97.37.69.55,2.01.55,3.97ZM151.14,300.56c0-1.44-.06-2.43-.19-2.98-.12-.55-.35-.82-.67-.82s-.55.27-.68.81c-.12.54-.18,1.52-.18,2.92s.06,2.38.18,2.93c.13.54.35.81.68.81s.54-.27.67-.81c.13-.51.19-1.47.19-2.87Z" fill="#0e8bcd" opacity=".5" stroke-width="0"/>
  </g>
  <g>
    <path d="M205.79,295.65h2.17v9.51h-1.23v-8.42h-.94v-1.09Z" fill="#003d2b" opacity=".5" stroke-width="0"/>
    <path d="M211.77,305.15h-1.37l.92-1.85c.16-.34.33-.68.49-1.04.16-.35.32-.72.48-1.11-.32.25-.64.38-.98.38-.56,0-.98-.23-1.24-.68-.27-.45-.4-1.16-.4-2.11,0-1.15.16-1.97.47-2.47.31-.5.83-.74,1.56-.74s1.26.25,1.58.75c.32.5.47,1.33.47,2.5,0,.86-.1,1.66-.3,2.39-.09.36-.23.76-.41,1.21-.18.45-.4.95-.66,1.5l-.5,1.04-.11.23ZM212.49,298.58c0-1.25-.27-1.88-.81-1.88s-.8.62-.8,1.85c0,.65.06,1.12.19,1.41.12.29.33.44.61.44s.49-.14.62-.43c.13-.29.19-.75.19-1.39Z" fill="#003d2b" opacity=".5" stroke-width="0"/>
    <path d="M217.85,300c.43.16.72.4.88.75.16.34.24.89.24,1.66,0,.98-.17,1.71-.5,2.17-.33.46-.85.7-1.55.7s-1.23-.23-1.56-.7c-.33-.46-.5-1.19-.5-2.17,0-.76.08-1.32.24-1.66.16-.34.45-.59.88-.75-.38-.16-.64-.41-.8-.73-.16-.34-.23-.81-.23-1.4,0-.41.04-.76.11-1.05.08-.3.19-.54.35-.73s.36-.33.61-.42c.25-.09.54-.14.89-.14s.64.05.89.14c.25.09.45.23.61.42.16.19.28.43.35.73.08.3.11.65.11,1.05,0,.59-.08,1.05-.23,1.4-.16.32-.42.56-.8.73ZM217.71,302.54c0-.33-.01-.62-.04-.85-.03-.24-.08-.43-.14-.58-.07-.15-.15-.26-.25-.33-.1-.07-.22-.1-.36-.1-.27,0-.47.14-.6.42-.12.28-.19.74-.19,1.37,0,1.1.26,1.66.79,1.66s.79-.53.79-1.59ZM217.62,297.98c0-.89-.24-1.34-.71-1.34s-.7.44-.7,1.33c0,.98.24,1.48.71,1.48s.7-.49.7-1.47Z" fill="#003d2b" opacity=".5" stroke-width="0"/>
    <path d="M221.06,295.65h3.02v1.1h-2.05l-.31,2.39h.15c.37,0,.7.06.99.18.29.12.53.29.73.52s.35.51.45.85.15.72.15,1.15c0,1.07-.23,1.91-.7,2.52-.46.6-1.11.91-1.93.91-.46,0-.97-.13-1.51-.39l.32-1.13c.44.23.81.34,1.1.34.42,0,.75-.19,1-.57.25-.38.37-.89.37-1.54,0-1.22-.52-1.83-1.57-1.83-.26,0-.52.04-.78.12l.55-4.62Z" fill="#003d2b" opacity=".5" stroke-width="0"/>
  </g>
  <g>
    <path d="M275.81,295.61h2.17v9.5h-1.23v-8.41h-.94v-1.09Z" fill="#e1b52f" opacity=".5" stroke-width="0"/>
    <path d="M281.79,305.12h-1.37l.92-1.85c.16-.34.33-.68.49-1.04.16-.36.32-.73.48-1.11-.32.25-.64.38-.98.38-.56,0-.98-.23-1.24-.68-.27-.45-.4-1.16-.4-2.11,0-1.15.16-1.97.47-2.47.31-.5.83-.74,1.56-.74s1.26.25,1.58.75c.32.5.47,1.33.47,2.5,0,.86-.1,1.66-.3,2.39-.09.36-.23.76-.41,1.21-.18.45-.4.95-.66,1.5l-.5,1.04-.11.23ZM282.51,298.55c0-1.25-.27-1.88-.81-1.88s-.8.62-.8,1.85c0,.65.06,1.12.19,1.41.12.29.33.44.61.44s.49-.14.62-.43c.13-.29.19-.75.19-1.39Z" fill="#e1b52f" opacity=".5" stroke-width="0"/>
    <path d="M287.01,305.12h-1.37l.92-1.85c.16-.34.33-.68.49-1.04.16-.36.32-.73.48-1.11-.32.25-.64.38-.98.38-.56,0-.98-.23-1.24-.68-.27-.45-.4-1.16-.4-2.11,0-1.15.16-1.97.47-2.47.31-.5.83-.74,1.56-.74s1.26.25,1.58.75c.32.5.47,1.33.47,2.5,0,.86-.1,1.66-.3,2.39-.09.36-.23.76-.41,1.21-.18.45-.4.95-.66,1.5l-.5,1.04-.11.23ZM287.73,298.55c0-1.25-.27-1.88-.81-1.88s-.8.62-.8,1.85c0,.65.06,1.12.19,1.41.12.29.33.44.61.44s.49-.14.62-.43c.13-.29.19-.75.19-1.39Z" fill="#e1b52f" opacity=".5" stroke-width="0"/>
    <path d="M294.31,300.44c0,1.71-.16,2.94-.49,3.69-.32.73-.88,1.1-1.66,1.1s-1.33-.37-1.66-1.1c-.32-.71-.49-1.97-.49-3.76s.16-3.05.49-3.76c.32-.74.88-1.11,1.66-1.11.72,0,1.26.32,1.6.97.37.69.55,2.01.55,3.97ZM293,300.44c0-1.44-.06-2.43-.19-2.98-.12-.55-.35-.82-.67-.82s-.55.27-.68.81c-.12.54-.18,1.52-.18,2.92s.06,2.38.18,2.93c.13.54.35.81.68.81s.54-.27.67-.81c.13-.51.19-1.47.19-2.88Z" fill="#e1b52f" opacity=".5" stroke-width="0"/>
  </g>
  <g>
    <path d="M346.13,295.97h2.17v9.5h-1.23v-8.42h-.94v-1.09Z" fill="#cb026e" opacity=".5" stroke-width="0"/>
    <path d="M352.12,305.48h-1.37l.92-1.85c.16-.34.33-.68.49-1.04s.32-.73.48-1.11c-.32.25-.64.38-.98.38-.56,0-.98-.23-1.24-.68-.27-.45-.4-1.16-.4-2.11,0-1.15.16-1.97.47-2.47.31-.5.83-.74,1.56-.74s1.26.25,1.58.75c.32.5.47,1.33.47,2.5,0,.86-.1,1.66-.3,2.39-.09.36-.23.76-.41,1.21-.18.45-.4.95-.66,1.5l-.5,1.04-.11.23ZM352.84,298.9c0-1.25-.27-1.88-.81-1.88s-.8.62-.8,1.85c0,.65.06,1.12.19,1.41.12.29.33.44.61.44s.49-.14.62-.43c.13-.29.19-.75.19-1.39Z" fill="#cb026e" opacity=".5" stroke-width="0"/>
    <path d="M357.34,305.48h-1.37l.92-1.85c.16-.34.33-.68.49-1.04s.32-.73.48-1.11c-.32.25-.64.38-.98.38-.56,0-.98-.23-1.24-.68-.27-.45-.4-1.16-.4-2.11,0-1.15.16-1.97.47-2.47.31-.5.83-.74,1.56-.74s1.26.25,1.58.75c.32.5.47,1.33.47,2.5,0,.86-.1,1.66-.3,2.39-.09.36-.23.76-.41,1.21-.18.45-.4.95-.66,1.5l-.5,1.04-.11.23ZM358.06,298.9c0-1.25-.27-1.88-.81-1.88s-.8.62-.8,1.85c0,.65.06,1.12.19,1.41.12.29.33.44.61.44s.49-.14.62-.43c.13-.29.19-.75.19-1.39Z" fill="#cb026e" opacity=".5" stroke-width="0"/>
    <path d="M361.41,295.97h3.02v1.1h-2.05l-.31,2.39h.15c.37,0,.7.06.99.18.29.12.53.29.73.52s.35.51.45.85c.1.34.15.72.15,1.15,0,1.07-.23,1.91-.7,2.52-.46.6-1.11.91-1.93.91-.46,0-.97-.13-1.51-.39l.32-1.13c.44.23.81.34,1.1.34.42,0,.75-.19,1-.57.25-.38.37-.89.37-1.54,0-1.22-.52-1.83-1.57-1.83-.26,0-.52.04-.78.12l.55-4.62Z" fill="#cb026e" opacity=".5" stroke-width="0"/>
  </g>
  <g>
    <path d="M414.25,298.91h-1.26v-.38c-.01-1.04.14-1.77.46-2.19.32-.43.85-.64,1.59-.64,1.4,0,2.1.78,2.1,2.33,0,1.05-.52,2.55-1.57,4.52l-.76,1.42-.04.07s-.05.1-.09.18h2.35v1.1h-4.17c.07-.16.22-.46.44-.93.22-.46.52-1.09.91-1.88.32-.69.59-1.27.81-1.75.22-.48.38-.87.49-1.18.22-.62.33-1.15.33-1.59,0-.79-.27-1.18-.82-1.18s-.79.49-.79,1.46v.54s.01.1.01.1Z" fill="#919191" opacity=".5" stroke-width="0"/>
    <path d="M422.37,300.65c0,1.71-.16,2.94-.49,3.69-.32.73-.88,1.1-1.66,1.1s-1.33-.37-1.66-1.1c-.32-.71-.49-1.97-.49-3.76s.16-3.05.49-3.76c.32-.74.88-1.11,1.66-1.11.72,0,1.26.32,1.6.97.37.69.55,2.01.55,3.97ZM421.06,300.65c0-1.44-.06-2.43-.18-2.98-.12-.55-.35-.82-.67-.82s-.55.27-.68.81c-.12.54-.18,1.52-.18,2.92s.06,2.38.18,2.93c.13.54.35.81.68.81s.54-.27.67-.81c.13-.51.19-1.47.19-2.88Z" fill="#919191" opacity=".5" stroke-width="0"/>
    <path d="M427.59,300.65c0,1.71-.16,2.94-.49,3.69-.32.73-.88,1.1-1.66,1.1s-1.33-.37-1.66-1.1c-.32-.71-.49-1.97-.49-3.76s.16-3.05.49-3.76c.32-.74.88-1.11,1.66-1.11.72,0,1.26.32,1.6.97.37.69.55,2.01.55,3.97ZM426.28,300.65c0-1.44-.06-2.43-.18-2.98-.12-.55-.35-.82-.67-.82s-.55.27-.68.81c-.12.54-.18,1.52-.18,2.92s.06,2.38.18,2.93c.13.54.35.81.68.81s.54-.27.67-.81c.13-.51.19-1.47.19-2.88Z" fill="#919191" opacity=".5" stroke-width="0"/>
    <path d="M432.81,300.65c0,1.71-.16,2.94-.49,3.69-.32.73-.88,1.1-1.66,1.1s-1.33-.37-1.66-1.1c-.32-.71-.49-1.97-.49-3.76s.16-3.05.49-3.76c.32-.74.88-1.11,1.66-1.11.72,0,1.26.32,1.6.97.37.69.55,2.01.55,3.97ZM431.5,300.65c0-1.44-.06-2.43-.18-2.98-.12-.55-.35-.82-.67-.82s-.55.27-.68.81c-.12.54-.18,1.52-.18,2.92s.06,2.38.18,2.93c.13.54.35.81.68.81s.54-.27.67-.81c.13-.51.19-1.47.19-2.88Z" fill="#919191" opacity=".5" stroke-width="0"/>
  </g>
  <g>
    <path d="M485.35,299.29h-1.26v-.38c-.01-1.04.14-1.77.46-2.19.32-.43.85-.64,1.59-.64,1.4,0,2.1.78,2.1,2.33,0,1.05-.52,2.55-1.57,4.52l-.76,1.42s-.02.03-.04.07-.05.1-.09.18h2.35v1.1h-4.17c.07-.16.22-.47.44-.93s.52-1.09.91-1.88c.32-.69.59-1.27.81-1.75.22-.48.38-.87.49-1.18.22-.62.33-1.15.33-1.59,0-.79-.27-1.18-.82-1.18s-.79.49-.79,1.46v.54s.01.1.01.1Z" fill="#5b8f77" opacity=".5" stroke-width="0"/>
    <path d="M493.47,301.02c0,1.71-.16,2.94-.49,3.69-.32.73-.88,1.1-1.66,1.1s-1.33-.37-1.66-1.1c-.32-.71-.49-1.97-.49-3.76s.16-3.05.49-3.76c.32-.74.88-1.11,1.66-1.11.72,0,1.26.32,1.6.97.37.69.55,2.01.55,3.97ZM492.17,301.02c0-1.44-.06-2.43-.18-2.98-.12-.55-.35-.82-.67-.82s-.55.27-.68.81c-.12.54-.18,1.52-.18,2.92s.06,2.38.18,2.93c.13.54.35.81.68.81s.54-.27.67-.81c.13-.51.19-1.47.19-2.88Z" fill="#5b8f77" opacity=".5" stroke-width="0"/>
    <path d="M498.69,301.02c0,1.71-.16,2.94-.49,3.69-.32.73-.88,1.1-1.66,1.1s-1.33-.37-1.66-1.1c-.32-.71-.49-1.97-.49-3.76s.16-3.05.49-3.76c.32-.74.88-1.11,1.66-1.11.72,0,1.26.32,1.6.97.37.69.55,2.01.55,3.97ZM497.39,301.02c0-1.44-.06-2.43-.18-2.98-.12-.55-.35-.82-.67-.82s-.55.27-.68.81c-.12.54-.18,1.52-.18,2.92s.06,2.38.18,2.93c.13.54.35.81.68.81s.54-.27.67-.81c.13-.51.19-1.47.19-2.88Z" fill="#5b8f77" opacity=".5" stroke-width="0"/>
    <path d="M500.69,296.2h3.02v1.1h-2.05l-.31,2.39h.15c.37,0,.71.06.99.18.29.12.53.29.73.52s.35.51.45.85c.1.34.15.72.15,1.15,0,1.07-.23,1.91-.7,2.52-.46.6-1.11.9-1.93.9-.46,0-.97-.13-1.51-.39l.32-1.13c.44.23.81.34,1.1.34.42,0,.75-.19,1-.57.25-.38.37-.89.37-1.54,0-1.22-.52-1.83-1.57-1.83-.26,0-.52.04-.78.12l.55-4.62Z" fill="#5b8f77" opacity=".5" stroke-width="0"/>
  </g>
  <g>
    <path d="M556.38,298.82h-1.26v-.38c-.01-1.04.14-1.77.46-2.19.32-.43.85-.64,1.59-.64,1.4,0,2.1.78,2.1,2.33,0,1.05-.52,2.55-1.57,4.52l-.76,1.42s-.02.03-.04.07-.05.1-.09.18h2.35v1.1h-4.17c.07-.16.22-.47.44-.93s.52-1.09.91-1.88c.32-.69.59-1.27.81-1.75.22-.48.38-.87.49-1.18.22-.62.33-1.15.33-1.59,0-.79-.27-1.18-.82-1.18s-.79.49-.79,1.46v.54s.01.1.01.1Z" fill="#01608a" opacity=".5" stroke-width="0"/>
    <path d="M564.49,300.56c0,1.71-.16,2.94-.49,3.69-.32.73-.88,1.1-1.66,1.1s-1.33-.37-1.66-1.1c-.32-.71-.49-1.97-.49-3.76s.16-3.05.49-3.76c.32-.74.88-1.11,1.66-1.11.72,0,1.26.32,1.6.97.37.69.55,2.01.55,3.97ZM563.19,300.56c0-1.44-.06-2.43-.18-2.98-.12-.55-.35-.82-.67-.82s-.55.27-.68.81c-.12.54-.18,1.52-.18,2.92s.06,2.38.18,2.93c.13.54.35.81.68.81s.54-.27.67-.81c.13-.51.19-1.47.19-2.87Z" fill="#01608a" opacity=".5" stroke-width="0"/>
    <path d="M565.55,295.73h2.17v9.5h-1.22v-8.42h-.94v-1.09Z" fill="#01608a" opacity=".5" stroke-width="0"/>
    <path d="M573.77,300.56c0,1.71-.16,2.94-.49,3.69-.32.73-.88,1.1-1.66,1.1s-1.33-.37-1.66-1.1c-.32-.71-.49-1.97-.49-3.76s.16-3.05.49-3.76c.32-.74.88-1.11,1.66-1.11.72,0,1.26.32,1.6.97.37.69.55,2.01.55,3.97ZM572.46,300.56c0-1.44-.06-2.43-.18-2.98-.12-.55-.35-.82-.67-.82s-.55.27-.68.81c-.12.54-.18,1.52-.18,2.92s.06,2.38.18,2.93c.13.54.35.81.68.81s.54-.27.67-.81c.13-.51.19-1.47.19-2.87Z" fill="#01608a" opacity=".5" stroke-width="0"/>
  </g>
  <g>
    <path d="M626.54,298.99h-1.26v-.38c-.01-1.04.14-1.77.46-2.19.32-.43.85-.64,1.59-.64,1.4,0,2.1.78,2.1,2.33,0,1.05-.52,2.55-1.57,4.52l-.76,1.42s-.02.03-.04.07-.05.1-.09.18h2.35v1.1h-4.17c.07-.16.22-.47.44-.93s.52-1.09.91-1.88c.32-.69.59-1.27.81-1.75.22-.48.38-.87.49-1.18.22-.62.33-1.15.33-1.59,0-.79-.27-1.18-.82-1.18s-.79.49-.79,1.46v.54s.01.1.01.1Z" fill="#d86c01" opacity=".5" stroke-width="0"/>
    <path d="M634.66,300.73c0,1.71-.16,2.94-.49,3.69-.32.73-.88,1.1-1.66,1.1s-1.33-.37-1.66-1.1c-.32-.71-.49-1.97-.49-3.76s.16-3.05.49-3.76c.32-.74.88-1.11,1.66-1.11.72,0,1.26.32,1.6.97.37.69.55,2.01.55,3.97ZM633.36,300.73c0-1.44-.06-2.43-.18-2.98-.12-.55-.35-.82-.67-.82s-.55.27-.68.81c-.12.54-.18,1.52-.18,2.92s.06,2.38.18,2.93c.13.54.35.81.68.81s.54-.27.67-.81c.13-.51.19-1.47.19-2.87Z" fill="#d86c01" opacity=".5" stroke-width="0"/>
    <path d="M635.72,295.9h2.17v9.5h-1.22v-8.42h-.94v-1.09Z" fill="#d86c01" opacity=".5" stroke-width="0"/>
    <path d="M640.57,295.9h3.02v1.1h-2.05l-.31,2.39h.15c.37,0,.71.06.99.18.29.12.53.29.73.52s.35.51.45.85c.1.34.15.72.15,1.15,0,1.07-.23,1.91-.7,2.52-.46.6-1.11.9-1.93.9-.46,0-.97-.13-1.51-.39l.32-1.13c.44.23.81.34,1.1.34.42,0,.75-.19,1-.57.25-.38.37-.89.37-1.54,0-1.22-.52-1.83-1.57-1.83-.26,0-.52.04-.78.12l.55-4.62Z" fill="#d86c01" opacity=".5" stroke-width="0"/>
  </g>
  <g>
    <path d="M695.43,298.82h-1.26v-.38c-.01-1.04.14-1.77.46-2.19.32-.43.85-.64,1.59-.64,1.4,0,2.1.78,2.1,2.33,0,1.05-.52,2.55-1.57,4.52l-.76,1.42s-.02.03-.04.07-.05.1-.09.18h2.35v1.1h-4.17c.07-.16.22-.47.44-.93s.52-1.09.91-1.88c.32-.69.59-1.27.81-1.75.22-.48.38-.87.49-1.18.22-.62.33-1.15.33-1.59,0-.79-.27-1.18-.82-1.18s-.79.49-.79,1.46v.54s.01.1.01.1Z" fill="#8b3076" opacity=".5" stroke-width="0"/>
    <path d="M703.55,300.56c0,1.71-.16,2.94-.49,3.69-.32.73-.88,1.1-1.66,1.1s-1.33-.37-1.66-1.1c-.32-.71-.49-1.97-.49-3.76s.16-3.05.49-3.76c.32-.74.88-1.11,1.66-1.11.72,0,1.26.32,1.6.97.37.69.55,2.01.55,3.97ZM702.25,300.56c0-1.44-.06-2.43-.18-2.98-.12-.55-.35-.82-.67-.82s-.55.27-.68.81c-.12.54-.18,1.52-.18,2.92s.06,2.38.18,2.93c.13.54.35.81.68.81s.54-.27.67-.81c.13-.51.19-1.47.19-2.87Z" fill="#8b3076" opacity=".5" stroke-width="0"/>
    <path d="M705.87,298.82h-1.26v-.38c-.01-1.04.14-1.77.46-2.19.32-.43.85-.64,1.59-.64,1.4,0,2.1.78,2.1,2.33,0,1.05-.52,2.55-1.57,4.52l-.76,1.42s-.02.03-.04.07-.05.1-.09.18h2.35v1.1h-4.17c.07-.16.22-.47.44-.93s.52-1.09.91-1.88c.32-.69.59-1.27.81-1.75.22-.48.38-.87.49-1.18.22-.62.33-1.15.33-1.59,0-.79-.27-1.18-.82-1.18s-.79.49-.79,1.46v.54s.01.1.01.1Z" fill="#8b3076" opacity=".5" stroke-width="0"/>
    <path d="M713.99,300.56c0,1.71-.16,2.94-.49,3.69-.32.73-.88,1.1-1.66,1.1s-1.33-.37-1.66-1.1c-.32-.71-.49-1.97-.49-3.76s.16-3.05.49-3.76c.32-.74.88-1.11,1.66-1.11.72,0,1.26.32,1.6.97.37.69.55,2.01.55,3.97ZM712.69,300.56c0-1.44-.06-2.43-.18-2.98-.12-.55-.35-.82-.67-.82s-.55.27-.68.81c-.12.54-.18,1.52-.18,2.92s.06,2.38.18,2.93c.13.54.35.81.68.81s.54-.27.67-.81c.13-.51.19-1.47.19-2.87Z" fill="#8b3076" opacity=".5" stroke-width="0"/>
  </g>
  <line x1="142.68" y1="218.22" x2="142.68" y2="214.02" fill="#fff" opacity=".5" stroke="#003d2b" stroke-miterlimit="10" stroke-width=".5"/>
  <line x1="142.12" y1="378.97" x2="142.12" y2="374.77" fill="#fff" opacity=".5" stroke="#003d2b" stroke-miterlimit="10" stroke-width=".5"/>
  <line x1="214.47" y1="218.19" x2="214.47" y2="213.99" fill="#fff" opacity=".5" stroke="#003d2b" stroke-miterlimit="10" stroke-width=".5"/>
  <line x1="213.85" y1="378.86" x2="213.85" y2="374.66" fill="#fff" opacity=".5" stroke="#003d2b" stroke-miterlimit="10" stroke-width=".5"/>
  <line x1="283.79" y1="218.19" x2="283.79" y2="213.99" fill="#fff" opacity=".5" stroke="#003d2b" stroke-miterlimit="10" stroke-width=".5"/>
  <line x1="354.72" y1="218.42" x2="354.72" y2="214.22" fill="#fff" opacity=".5" stroke="#003d2b" stroke-miterlimit="10" stroke-width=".5"/>
  <line x1="284.41" y1="378.55" x2="284.41" y2="374.35" fill="#fff" opacity=".5" stroke="#003d2b" stroke-miterlimit="10" stroke-width=".5"/>
  <line x1="353.96" y1="378.86" x2="353.96" y2="374.66" fill="#fff" opacity=".5" stroke="#003d2b" stroke-miterlimit="10" stroke-width=".5"/>
  <line x1="423.59" y1="378.86" x2="423.59" y2="374.66" fill="#fff" opacity=".5" stroke="#003d2b" stroke-miterlimit="10" stroke-width=".5"/>
  <line x1="494.29" y1="379.09" x2="494.29" y2="374.88" fill="#fff" opacity=".5" stroke="#003d2b" stroke-miterlimit="10" stroke-width=".5"/>
  <line x1="563.42" y1="378.55" x2="563.42" y2="374.35" fill="#fff" opacity=".5" stroke="#003d2b" stroke-miterlimit="10" stroke-width=".5"/>
  <line x1="635.49" y1="378.55" x2="635.49" y2="374.35" fill="#fff" opacity=".5" stroke="#003d2b" stroke-miterlimit="10" stroke-width=".5"/>
  <line x1="705.12" y1="378.86" x2="705.12" y2="374.66" fill="#fff" opacity=".5" stroke="#003d2b" stroke-miterlimit="10" stroke-width=".5"/>
  <line x1="423.51" y1="218.19" x2="423.51" y2="213.99" fill="#fff" opacity=".5" stroke="#003d2b" stroke-miterlimit="10" stroke-width=".5"/>
  <line x1="494.52" y1="218.5" x2="494.52" y2="214.3" fill="#fff" opacity=".5" stroke="#003d2b" stroke-miterlimit="10" stroke-width=".5"/>
  <line x1="563.84" y1="218.5" x2="563.84" y2="214.3" fill="#fff" opacity=".5" stroke="#003d2b" stroke-miterlimit="10" stroke-width=".5"/>
  <line x1="635.38" y1="218.19" x2="635.38" y2="213.99" fill="#fff" opacity=".5" stroke="#003d2b" stroke-miterlimit="10" stroke-width=".5"/>
  <line x1="705.43" y1="218.5" x2="705.43" y2="214.3" fill="#fff" opacity=".5" stroke="#003d2b" stroke-miterlimit="10" stroke-width=".5"/>
  <g>
    <path d="M50.12,196.82h2.25c1.08,0,1.87.27,2.36.82.49.55.74,1.43.74,2.63,0,1.69-.5,2.77-1.49,3.27-.5.22-1.22.34-2.16.34v5.62h-1.71v-12.67ZM51.83,202.41c.71,0,1.19-.14,1.46-.43.27-.29.41-.8.41-1.54s-.13-1.31-.39-1.66c-.26-.35-.68-.52-1.24-.52h-.24v4.15Z" fill="#003d2b" opacity=".5" stroke-width="0"/>
    <path d="M56.79,196.82h2.25c.93,0,1.62.22,2.08.67.57.57.86,1.45.86,2.63,0,.91-.15,1.64-.46,2.19s-.74.89-1.3,1.02l2.33,6.16h-1.73l-2.32-6.21v6.21h-1.71v-12.67ZM58.5,202.43c.66,0,1.13-.15,1.4-.46.27-.31.41-.82.41-1.55,0-.39-.03-.73-.09-1.01-.06-.28-.15-.51-.27-.68-.12-.18-.28-.3-.48-.39-.19-.08-.43-.12-.69-.12h-.29v4.21Z" fill="#003d2b" opacity=".5" stroke-width="0"/>
    <path d="M63.87,196.82h1.71v12.67h-1.71v-12.67Z" fill="#003d2b" opacity=".5" stroke-width="0"/>
    <path d="M66.52,196.82h1.68l.76,4.68.13.85.27,1.84c.04.31.08.6.12.85.04.26.07.49.09.7l.08.62c.02-.13.03-.24.04-.34.01-.1.02-.18.03-.25l.22-1.47.29-1.93c.03-.17.05-.34.08-.48.02-.15.05-.28.07-.39l.82-4.68h1.59l-2.49,12.67h-1.35l-2.45-12.67Z" fill="#003d2b" opacity=".5" stroke-width="0"/>
    <path d="M75.25,196.82h1.33l2.72,12.67h-1.69l-.48-2.47h-2.51l-.48,2.47h-1.64l2.76-12.67ZM76.88,205.7l-.38-2.02c-.25-1.37-.46-2.84-.62-4.4-.08.76-.18,1.53-.3,2.31-.12.78-.26,1.61-.43,2.48l-.31,1.62h2.03Z" fill="#003d2b" opacity=".5" stroke-width="0"/>
    <path d="M79.02,196.82h5.56v1.49h-1.91v11.18h-1.67v-11.18h-1.97v-1.49Z" fill="#003d2b" opacity=".5" stroke-width="0"/>
    <path d="M85.52,196.82h4.54v1.44h-2.83v4.01h2.51v1.44h-2.51v4.33h2.83v1.44h-4.54v-12.67Z" fill="#003d2b" opacity=".5" stroke-width="0"/>
    <path d="M49.14,216.99h1.65l.86,5.88.14.87c.07.47.11.9.15,1.29l.09,1.08s.01.08.02.15c0,.07.01.16.02.27l.04-.41c.07-.72.14-1.38.21-1.98.07-.6.15-1.16.24-1.67l.91-5.48h1.31l.85,5.33c.13.79.23,1.52.32,2.19.08.67.15,1.32.21,1.93.05-.65.12-1.27.19-1.87.07-.6.14-1.19.22-1.77l.12-.85.73-4.96h1.63l-2.24,12.67h-1.33l-.89-5.47s-.02-.11-.04-.27-.05-.39-.1-.68l-.17-1.26c-.01-.1-.03-.25-.05-.44-.02-.2-.05-.45-.08-.75l-.04-.53c-.01.13-.02.24-.03.33-.01.09-.02.17-.02.23-.03.36-.05.64-.07.84-.02.2-.03.32-.04.37l-.17,1.21c-.04.28-.07.5-.09.66s-.04.26-.05.3l-.93,5.47h-1.37l-2.19-12.67Z" fill="#003d2b" opacity=".5" stroke-width="0"/>
    <path d="M60.06,216.99h4.54v1.44h-2.83v4.01h2.51v1.44h-2.51v4.33h2.83v1.44h-4.54v-12.67Z" fill="#003d2b" opacity=".5" stroke-width="0"/>
    <path d="M67.97,216.99h1.33l2.72,12.67h-1.69l-.48-2.47h-2.51l-.48,2.47h-1.64l2.76-12.67ZM69.6,225.87l-.38-2.02c-.25-1.37-.46-2.84-.62-4.4-.08.76-.18,1.53-.3,2.31-.12.78-.26,1.61-.43,2.48l-.31,1.62h2.03Z" fill="#003d2b" opacity=".5" stroke-width="0"/>
    <path d="M73.02,216.99h1.71v11.23h2.79v1.44h-4.5v-12.67Z" fill="#003d2b" opacity=".5" stroke-width="0"/>
    <path d="M77.28,216.99h5.56v1.49h-1.91v11.18h-1.67v-11.18h-1.97v-1.49Z" fill="#003d2b" opacity=".5" stroke-width="0"/>
    <path d="M83.78,216.99h1.71v4.96h2.5v-4.96h1.71v12.67h-1.71v-6.27h-2.5v6.27h-1.71v-12.67Z" fill="#003d2b" opacity=".5" stroke-width="0"/>
  </g>
  <g>
    <path d="M53.96,356.32h2.25c1.08,0,1.87.27,2.36.82.49.55.74,1.43.74,2.63,0,1.69-.5,2.77-1.49,3.27-.5.22-1.22.34-2.16.34v5.62h-1.71v-12.67ZM55.66,361.91c.71,0,1.19-.14,1.46-.43.27-.29.41-.8.41-1.54s-.13-1.31-.39-1.66c-.26-.35-.68-.53-1.24-.53h-.24v4.15Z" fill="#003d2b" opacity=".5" stroke-width="0"/>
    <path d="M60.62,356.32h1.67v8.96c0,.91.08,1.52.25,1.82.17.3.5.45,1,.45s.83-.13.98-.39c.16-.27.25-.81.25-1.63v-9.2h1.67v9.2c0,1.38-.21,2.31-.63,2.8-.5.55-1.27.83-2.31.83-1.14,0-1.94-.36-2.4-1.07-.32-.49-.48-1.42-.48-2.81v-8.96Z" fill="#003d2b" opacity=".5" stroke-width="0"/>
    <path d="M68.4,356.32h2.31c1.81,0,2.72,1.12,2.72,3.37,0,.86-.12,1.5-.35,1.91s-.65.73-1.25.94c.68.27,1.15.62,1.4,1.05.26.42.39,1.06.39,1.9,0,2.33-1,3.49-2.99,3.49h-2.23v-12.67ZM70.01,361.9c.66,0,1.12-.15,1.38-.46.26-.32.39-.89.39-1.7,0-1.37-.49-2.05-1.48-2.05h-.21s-.07,0-.08,0v4.2ZM70.01,367.53c.7,0,1.18-.15,1.45-.45s.4-.85.4-1.63-.14-1.38-.42-1.7c-.27-.33-.75-.49-1.44-.49v4.28Z" fill="#003d2b" opacity=".5" stroke-width="0"/>
    <path d="M75.32,356.32h1.71v11.23h2.79v1.44h-4.5v-12.67Z" fill="#003d2b" opacity=".5" stroke-width="0"/>
    <path d="M80.89,356.32h1.71v12.67h-1.71v-12.67Z" fill="#003d2b" opacity=".5" stroke-width="0"/>
    <path d="M89.52,356.52v1.54c-.44-.21-.8-.32-1.1-.32-.4,0-.75.1-1.04.3-.29.2-.53.51-.72.92-.19.42-.33.94-.42,1.58-.09.64-.14,1.39-.14,2.26,0,3.13.8,4.69,2.4,4.69.28,0,.62-.09,1.01-.26v1.57c-.41.23-.87.34-1.38.34-2.57,0-3.85-2.1-3.85-6.29,0-2.27.31-3.95.94-5.06.63-1.1,1.59-1.66,2.88-1.66.48,0,.95.13,1.41.38Z" fill="#003d2b" opacity=".5" stroke-width="0"/>
    <path d="M50.72,376.49h1.65l.86,5.88.14.87c.07.47.11.9.15,1.29l.09,1.08s.01.08.02.15.01.16.02.27l.04-.41c.07-.72.14-1.38.21-1.98.07-.6.15-1.16.24-1.67l.91-5.48h1.31l.85,5.33c.13.79.23,1.52.32,2.19.08.67.15,1.32.21,1.93.05-.65.12-1.27.19-1.87.07-.6.14-1.19.22-1.77l.12-.85.73-4.96h1.63l-2.24,12.67h-1.33l-.89-5.47s-.02-.11-.04-.27c-.02-.16-.05-.39-.1-.68l-.17-1.26c-.01-.1-.03-.25-.05-.44s-.05-.45-.08-.75l-.04-.53c-.01.13-.02.24-.03.33-.01.09-.02.17-.02.23-.03.36-.05.64-.07.84-.02.2-.03.32-.04.37l-.17,1.21c-.04.28-.07.5-.09.66-.02.16-.04.26-.05.3l-.93,5.47h-1.37l-2.19-12.67Z" fill="#003d2b" opacity=".5" stroke-width="0"/>
    <path d="M61.64,376.49h4.54v1.44h-2.83v4.01h2.51v1.44h-2.51v4.33h2.83v1.44h-4.54v-12.67Z" fill="#003d2b" opacity=".5" stroke-width="0"/>
    <path d="M69.55,376.49h1.33l2.72,12.67h-1.69l-.48-2.47h-2.51l-.48,2.47h-1.64l2.76-12.67ZM71.19,385.37l-.38-2.02c-.25-1.37-.46-2.84-.62-4.4-.08.76-.18,1.53-.3,2.31-.12.78-.26,1.61-.43,2.48l-.31,1.62h2.03Z" fill="#003d2b" opacity=".5" stroke-width="0"/>
    <path d="M74.6,376.49h1.71v11.23h2.79v1.44h-4.5v-12.67Z" fill="#003d2b" opacity=".5" stroke-width="0"/>
    <path d="M78.87,376.49h5.56v1.49h-1.91v11.18h-1.67v-11.18h-1.97v-1.49Z" fill="#003d2b" opacity=".5" stroke-width="0"/>
    <path d="M85.37,376.49h1.71v4.96h2.5v-4.96h1.71v12.67h-1.71v-6.27h-2.5v6.27h-1.71v-12.67Z" fill="#003d2b" opacity=".5" stroke-width="0"/>
  </g>
</svg>