<?xml version="1.0" encoding="UTF-8"?>
<svg id="Layer_1" data-name="Layer 1" xmlns="http://www.w3.org/2000/svg" version="1.1" viewBox="0 0 1280 720">
  <g>
    <path id="dot-0" d="M270.76,483.55c0,15.01-12.16,27.17-27.17,27.17s-27.17-12.16-27.17-27.17,12.16-27.17,27.17-27.17,27.17,12.16,27.17,27.17" vector-effect="non-scaling-stroke" fill="#0e8bcd" fill-opacity=".5" stroke-width="0"/>
    <path id="dot-1" d="M287.3,224.58c0,24.14-19.56,43.71-43.7,43.72-24.14,0-43.71-19.56-43.72-43.7h0c0-24.15,19.56-43.72,43.7-43.73,24.14,0,43.71,19.56,43.72,43.7h0" vector-effect="non-scaling-stroke" fill="#0e8bcd" fill-opacity=".5" stroke-width="0"/>
    <path id="dot-2" d="M378.93,483.55c0,13.86-11.23,25.09-25.09,25.09s-25.09-11.23-25.09-25.09,11.23-25.09,25.09-25.09,25.09,11.23,25.09,25.09" vector-effect="non-scaling-stroke" fill="#003d2b" fill-opacity=".5" stroke-width="0"/>
    <path id="dot-3" d="M400.43,224.58c0,25.73-20.85,46.6-46.59,46.6-25.73,0-46.6-20.85-46.6-46.59v-.02c0-25.73,20.85-46.6,46.59-46.6,25.73,0,46.6,20.85,46.6,46.59v.02" vector-effect="non-scaling-stroke" fill="#003d2b" fill-opacity=".5" stroke-width="0"/>
    <path id="dot-4" d="M486.85,483.55c0,12.61-10.22,22.83-22.83,22.83-12.61,0-22.83-10.22-22.83-22.83h0c0-12.61,10.22-22.83,22.83-22.83,12.61,0,22.83,10.22,22.83,22.83h0" vector-effect="non-scaling-stroke" fill="#e1b52f" fill-opacity=".5" stroke-width="0"/>
    <path id="dot-5" d="M516.6,224.58c0,29.04-23.54,52.58-52.58,52.58s-52.58-23.54-52.58-52.58,23.54-52.58,52.58-52.58,52.58,23.54,52.58,52.58" vector-effect="non-scaling-stroke" fill="#e1b52f" fill-opacity=".5" stroke-width="0"/>
    <path id="dot-6" d="M585.93,483.55c0,6.48-5.25,11.73-11.73,11.73s-11.73-5.25-11.73-11.73,5.25-11.73,11.73-11.73,11.73,5.25,11.73,11.73" vector-effect="non-scaling-stroke" fill="#cb026e" fill-opacity=".5" stroke-width="0"/>
    <path id="dot-7" d="M629.73,224.58c0,30.67-24.85,55.53-55.52,55.53-30.67,0-55.53-24.85-55.53-55.52v-.02c0-30.67,24.85-55.53,55.52-55.53,30.67,0,55.53,24.85,55.53,55.52v.02" vector-effect="non-scaling-stroke" fill="#cb026e" fill-opacity=".5" stroke-width="0"/>
    <path id="dot-8" d="M689.77,483.55c0,2.97-2.41,5.38-5.38,5.38-2.97,0-5.38-2.41-5.38-5.38h0c0-2.97,2.41-5.38,5.38-5.38,2.97,0,5.38,2.41,5.38,5.38h0" vector-effect="non-scaling-stroke" fill="#919191" fill-opacity=".5" stroke-width="0"/>
    <path id="dot-9" d="M745.38,224.58c0,33.68-27.29,61-60.98,61-33.68,0-61-27.29-61-60.98v-.02c0-33.68,27.29-61,60.98-61,33.68,0,61,27.29,61,60.98v.02" vector-effect="non-scaling-stroke" fill="#919191" fill-opacity=".5" stroke-width="0"/>
    <path id="dot-10" d="M800.02,483.55c0,2.97-2.41,5.38-5.38,5.38-2.97,0-5.38-2.41-5.38-5.38h0c0-2.97,2.41-5.38,5.38-5.38,2.97,0,5.38,2.41,5.38,5.38h0" vector-effect="non-scaling-stroke" fill="#5b8f77" fill-opacity=".5" stroke-width="0"/>
    <path id="dot-11" d="M858.47,224.58c0,35.25-28.58,63.83-63.83,63.83s-63.83-28.58-63.83-63.83,28.58-63.83,63.83-63.83,63.83,28.58,63.83,63.83" vector-effect="non-scaling-stroke" fill="#5b8f77" fill-opacity=".5" stroke-width="0"/>
    <path id="dot-12" d="M904.82,483.55" vector-effect="non-scaling-stroke" fill="#01608a" fill-opacity=".5" stroke-width="0"/>
    <path id="dot-13" d="M967.8,224.58c0,34.78-28.19,62.98-62.98,62.98s-62.98-28.19-62.98-62.98,28.19-62.98,62.98-62.98,62.98,28.19,62.98,62.98" vector-effect="non-scaling-stroke" fill="#01608a" fill-opacity=".5" stroke-width="0"/>
    <path id="dot-14" d="M1015.01,483.55" vector-effect="non-scaling-stroke" fill="#d86c01" fill-opacity=".5" stroke-width="0"/>
    <path id="dot-15" d="M1081.45,224.58c0,36.69-29.75,66.44-66.44,66.44s-66.44-29.75-66.44-66.44,29.75-66.44,66.44-66.44,66.44,29.75,66.44,66.44" vector-effect="non-scaling-stroke" fill="#d86c01" fill-opacity=".5" stroke-width="0"/>
    <path id="dot-16" d="M1125.19,483.55" vector-effect="non-scaling-stroke" fill="#8b3076" fill-opacity=".5" stroke-width="0"/>
    <path id="dot-17" d="M1195.45,224.58c0,38.8-31.45,70.25-70.25,70.25s-70.25-31.45-70.25-70.25,31.45-70.25,70.25-70.25,70.25,31.45,70.25,70.25" vector-effect="non-scaling-stroke" fill="#8b3076" fill-opacity=".5" stroke-width="0"/>
  </g>
  <line x1="242.27" y1="225.3" x2="1127.18" y2="225.3" fill="#fff" opacity=".5" stroke="#003d2b" stroke-miterlimit="10" stroke-width=".5"/>
  <line x1="241.61" y1="484.16" x2="1126.51" y2="484.16" fill="#fff" opacity=".5" stroke="#003d2b" stroke-miterlimit="10" stroke-width=".5"/>
  <g>
    <path d="M228.75,353.53h3.41v14.94h-1.92v-13.22h-1.48v-1.71Z" fill="#0e8bcd" opacity=".5" stroke-width="0"/>
    <path d="M238.16,368.47h-2.15l1.44-2.9c.26-.53.51-1.07.77-1.63.25-.56.5-1.14.75-1.75-.5.4-1.01.6-1.54.6-.88,0-1.54-.36-1.95-1.07-.42-.71-.63-1.82-.63-3.32,0-1.81.25-3.1.74-3.88.49-.78,1.31-1.17,2.45-1.17s1.98.39,2.48,1.18.74,2.1.74,3.93c0,1.35-.15,2.6-.46,3.75-.15.57-.36,1.2-.64,1.9-.28.7-.62,1.49-1.04,2.36l-.78,1.63-.17.37ZM239.29,358.14c0-1.97-.42-2.95-1.27-2.95s-1.26.97-1.26,2.91c0,1.02.1,1.76.29,2.22s.52.69.96.69.77-.23.97-.68c.2-.45.3-1.18.3-2.18Z" fill="#0e8bcd" opacity=".5" stroke-width="0"/>
    <path d="M247.71,360.36c.67.25,1.13.64,1.38,1.17.25.54.38,1.4.38,2.6,0,1.55-.26,2.69-.78,3.41s-1.33,1.09-2.44,1.09-1.93-.37-2.45-1.09c-.52-.73-.78-1.87-.78-3.41,0-1.2.13-2.07.38-2.6.25-.53.71-.92,1.38-1.17-.59-.26-1.01-.64-1.26-1.14-.25-.54-.37-1.27-.37-2.2,0-.64.06-1.19.18-1.65.12-.46.3-.85.56-1.15s.57-.52.96-.66c.39-.14.86-.21,1.4-.21s1.01.07,1.39.21c.39.14.71.36.96.66s.44.68.56,1.15c.12.46.18,1.02.18,1.65,0,.92-.12,1.65-.37,2.2-.25.5-.66.88-1.26,1.14ZM247.49,364.37c0-.52-.02-.97-.07-1.34-.05-.37-.12-.67-.22-.9-.1-.23-.23-.4-.39-.51-.16-.11-.35-.16-.57-.16-.43,0-.75.22-.94.67s-.29,1.16-.29,2.16c0,1.73.42,2.6,1.25,2.6s1.24-.83,1.24-2.5ZM247.36,357.19c0-1.41-.37-2.11-1.11-2.11s-1.1.7-1.1,2.09c0,1.55.37,2.32,1.11,2.32s1.1-.77,1.1-2.3Z" fill="#0e8bcd" opacity=".5" stroke-width="0"/>
    <path d="M257.82,361.12c0,2.68-.26,4.62-.77,5.8-.51,1.15-1.38,1.72-2.6,1.72s-2.1-.58-2.61-1.73c-.51-1.12-.76-3.09-.76-5.91s.25-4.79.76-5.91c.51-1.16,1.38-1.74,2.6-1.74,1.14,0,1.97.51,2.52,1.53.58,1.08.87,3.16.87,6.24ZM255.77,361.12c0-2.26-.1-3.82-.29-4.68-.19-.86-.54-1.29-1.05-1.29s-.86.43-1.06,1.28c-.19.85-.29,2.38-.29,4.6s.1,3.75.29,4.6c.2.85.55,1.28,1.06,1.28s.85-.42,1.04-1.27c.2-.81.3-2.31.3-4.52Z" fill="#0e8bcd" opacity=".5" stroke-width="0"/>
  </g>
  <g>
    <path d="M341.65,353.4h3.41v14.94h-1.92v-13.22h-1.48v-1.71Z" fill="#003d2b" opacity=".5" stroke-width="0"/>
    <path d="M351.05,368.33h-2.15l1.44-2.9c.26-.53.51-1.07.77-1.63.25-.56.5-1.14.75-1.75-.5.4-1.01.6-1.54.6-.88,0-1.54-.36-1.95-1.07-.42-.71-.63-1.82-.63-3.32,0-1.81.25-3.1.74-3.88.49-.78,1.31-1.17,2.45-1.17s1.98.39,2.48,1.18.74,2.1.74,3.93c0,1.35-.15,2.61-.46,3.75-.15.57-.36,1.2-.64,1.9-.28.7-.62,1.49-1.04,2.36l-.78,1.63-.17.37ZM352.18,358c0-1.97-.42-2.95-1.27-2.95s-1.26.97-1.26,2.91c0,1.02.1,1.76.29,2.22s.52.69.96.69.77-.23.97-.68c.2-.45.3-1.18.3-2.18Z" fill="#003d2b" opacity=".5" stroke-width="0"/>
    <path d="M360.6,360.23c.67.25,1.13.64,1.38,1.17.25.54.38,1.4.38,2.6,0,1.55-.26,2.69-.78,3.41s-1.33,1.09-2.44,1.09-1.93-.37-2.45-1.09c-.52-.73-.78-1.87-.78-3.41,0-1.2.13-2.07.38-2.6.25-.53.71-.92,1.38-1.17-.59-.26-1.01-.64-1.26-1.14-.25-.54-.37-1.27-.37-2.2,0-.64.06-1.19.18-1.65.12-.46.3-.85.56-1.15s.57-.52.96-.66c.39-.14.86-.21,1.4-.21s1.01.07,1.39.21c.39.14.71.36.96.66s.44.68.56,1.15c.12.46.18,1.02.18,1.65,0,.92-.12,1.65-.37,2.2-.25.5-.66.88-1.26,1.14ZM360.38,364.23c0-.52-.02-.97-.07-1.34-.05-.37-.12-.67-.22-.9-.1-.23-.23-.4-.39-.51-.16-.11-.35-.16-.57-.16-.43,0-.75.22-.94.67s-.29,1.16-.29,2.16c0,1.73.42,2.6,1.25,2.6s1.24-.83,1.24-2.5ZM360.25,357.06c0-1.41-.37-2.11-1.11-2.11s-1.1.7-1.1,2.09c0,1.55.37,2.32,1.11,2.32s1.1-.77,1.1-2.3Z" fill="#003d2b" opacity=".5" stroke-width="0"/>
    <path d="M365.65,353.4h4.75v1.73h-3.22l-.48,3.75h.24c.59,0,1.11.09,1.56.28.46.19.84.46,1.15.82s.54.81.71,1.34c.16.53.24,1.13.24,1.81,0,1.68-.36,3-1.09,3.96-.73.95-1.74,1.42-3.04,1.42-.73,0-1.52-.21-2.37-.62l.5-1.78c.69.36,1.27.54,1.73.54.66,0,1.18-.3,1.57-.89.39-.6.58-1.41.58-2.42,0-1.92-.82-2.87-2.47-2.87-.41,0-.82.06-1.23.18l.87-7.26Z" fill="#003d2b" opacity=".5" stroke-width="0"/>
  </g>
  <g>
    <path d="M451.68,353.35h3.41v14.94h-1.92v-13.22h-1.48v-1.71Z" fill="#e1b52f" opacity=".5" stroke-width="0"/>
    <path d="M461.08,368.28h-2.15l1.44-2.9c.26-.53.51-1.07.77-1.63.25-.56.5-1.14.75-1.75-.5.4-1.01.6-1.54.6-.88,0-1.54-.36-1.95-1.07-.42-.71-.63-1.82-.63-3.32,0-1.81.25-3.1.74-3.88.49-.78,1.31-1.17,2.45-1.17s1.98.39,2.48,1.18.74,2.1.74,3.93c0,1.35-.15,2.61-.46,3.75-.15.57-.36,1.2-.64,1.9-.28.7-.62,1.48-1.04,2.36l-.78,1.63-.17.37ZM462.21,357.95c0-1.97-.42-2.95-1.27-2.95s-1.26.97-1.26,2.91c0,1.02.1,1.76.29,2.22s.52.69.96.69.77-.23.97-.68c.2-.45.3-1.18.3-2.18Z" fill="#e1b52f" opacity=".5" stroke-width="0"/>
    <path d="M469.29,368.28h-2.15l1.44-2.9c.26-.53.51-1.07.77-1.63.25-.56.5-1.14.75-1.75-.5.4-1.01.6-1.54.6-.88,0-1.54-.36-1.95-1.07-.42-.71-.63-1.82-.63-3.32,0-1.81.25-3.1.74-3.88.49-.78,1.31-1.17,2.45-1.17s1.98.39,2.48,1.18.74,2.1.74,3.93c0,1.35-.15,2.61-.46,3.75-.15.57-.36,1.2-.64,1.9-.28.7-.62,1.48-1.04,2.36l-.78,1.63-.17.37ZM470.42,357.95c0-1.97-.42-2.95-1.27-2.95s-1.26.97-1.26,2.91c0,1.02.1,1.76.29,2.22s.52.69.96.69.77-.23.97-.68c.2-.45.3-1.18.3-2.18Z" fill="#e1b52f" opacity=".5" stroke-width="0"/>
    <path d="M480.75,360.93c0,2.68-.26,4.62-.77,5.8-.51,1.15-1.38,1.72-2.6,1.72s-2.1-.58-2.61-1.73c-.51-1.12-.76-3.09-.76-5.91s.25-4.79.76-5.91c.51-1.16,1.38-1.74,2.6-1.74,1.14,0,1.97.51,2.52,1.53.58,1.08.87,3.16.87,6.24ZM478.7,360.93c0-2.26-.1-3.82-.29-4.68-.19-.86-.54-1.29-1.05-1.29s-.86.43-1.06,1.28c-.19.85-.29,2.38-.29,4.59s.1,3.75.29,4.6c.2.85.55,1.28,1.06,1.28s.85-.42,1.04-1.27c.2-.81.3-2.31.3-4.52Z" fill="#e1b52f" opacity=".5" stroke-width="0"/>
  </g>
  <g>
    <path d="M562.19,353.91h3.41v14.94h-1.92v-13.22h-1.48v-1.71Z" fill="#cb026e" opacity=".5" stroke-width="0"/>
    <path d="M571.59,368.84h-2.15l1.44-2.9c.26-.53.51-1.07.77-1.63.25-.56.5-1.14.75-1.75-.5.4-1.01.6-1.54.6-.88,0-1.54-.36-1.95-1.07-.42-.71-.63-1.82-.63-3.32,0-1.81.25-3.1.74-3.88.49-.78,1.31-1.17,2.45-1.17s1.98.39,2.48,1.18.74,2.1.74,3.93c0,1.35-.15,2.61-.46,3.75-.15.57-.36,1.2-.64,1.9-.28.7-.62,1.48-1.04,2.36l-.78,1.63-.17.37ZM572.73,358.51c0-1.97-.42-2.95-1.27-2.95s-1.26.97-1.26,2.91c0,1.02.1,1.76.29,2.22.2.46.52.69.96.69s.77-.23.97-.68c.2-.45.3-1.18.3-2.18Z" fill="#cb026e" opacity=".5" stroke-width="0"/>
    <path d="M579.8,368.84h-2.15l1.44-2.9c.26-.53.51-1.07.77-1.63.25-.56.5-1.14.75-1.75-.5.4-1.01.6-1.54.6-.88,0-1.54-.36-1.95-1.07-.42-.71-.63-1.82-.63-3.32,0-1.81.25-3.1.74-3.88.49-.78,1.31-1.17,2.45-1.17s1.98.39,2.48,1.18.74,2.1.74,3.93c0,1.35-.15,2.61-.46,3.75-.15.57-.36,1.2-.64,1.9-.28.7-.62,1.48-1.04,2.36l-.78,1.63-.17.37ZM580.93,358.51c0-1.97-.42-2.95-1.27-2.95s-1.26.97-1.26,2.91c0,1.02.1,1.76.29,2.22.2.46.52.69.96.69s.77-.23.97-.68c.2-.45.3-1.18.3-2.18Z" fill="#cb026e" opacity=".5" stroke-width="0"/>
    <path d="M586.19,353.91h4.75v1.73h-3.22l-.48,3.75h.24c.59,0,1.11.09,1.56.28.46.19.84.46,1.15.82s.54.81.71,1.33c.16.53.24,1.13.24,1.81,0,1.68-.36,3-1.09,3.96-.73.95-1.74,1.42-3.04,1.42-.73,0-1.52-.21-2.37-.62l.5-1.78c.69.36,1.27.54,1.73.54.66,0,1.18-.3,1.57-.89.39-.6.58-1.41.58-2.42,0-1.91-.82-2.87-2.47-2.87-.41,0-.82.06-1.23.18l.87-7.26Z" fill="#cb026e" opacity=".5" stroke-width="0"/>
  </g>
  <g>
    <path d="M669.23,358.52h-1.97l-.02-.59c0-1.63.25-2.78.74-3.44.5-.67,1.33-1.01,2.5-1.01,2.2,0,3.3,1.22,3.3,3.66,0,1.64-.82,4.01-2.47,7.11l-1.19,2.23s-.03.05-.06.12c-.03.06-.08.16-.13.28h3.7v1.72h-6.56c.11-.25.34-.73.69-1.46s.82-1.71,1.42-2.95c.51-1.08.93-2,1.28-2.76.34-.75.6-1.37.77-1.86.35-.97.52-1.8.52-2.51,0-1.24-.43-1.86-1.29-1.86s-1.24.77-1.24,2.3v.85s.02.15.02.15Z" fill="#919191" opacity=".5" stroke-width="0"/>
    <path d="M681.99,361.25c0,2.68-.26,4.62-.77,5.8-.51,1.15-1.38,1.72-2.6,1.72s-2.1-.58-2.61-1.73c-.51-1.12-.76-3.09-.76-5.91s.25-4.79.76-5.91c.51-1.16,1.38-1.74,2.6-1.74,1.14,0,1.97.51,2.51,1.53.58,1.08.87,3.16.87,6.24ZM679.94,361.25c0-2.26-.1-3.82-.29-4.68-.19-.86-.54-1.29-1.05-1.29s-.86.43-1.06,1.28c-.19.85-.29,2.38-.29,4.59s.1,3.75.29,4.61c.2.85.55,1.28,1.06,1.28s.85-.42,1.04-1.27c.2-.81.3-2.31.3-4.52Z" fill="#919191" opacity=".5" stroke-width="0"/>
    <path d="M690.19,361.25c0,2.68-.26,4.62-.77,5.8-.51,1.15-1.38,1.72-2.6,1.72s-2.1-.58-2.61-1.73c-.51-1.12-.76-3.09-.76-5.91s.25-4.79.76-5.91c.51-1.16,1.38-1.74,2.6-1.74,1.13,0,1.97.51,2.52,1.53.58,1.08.87,3.16.87,6.24ZM688.14,361.25c0-2.26-.1-3.82-.29-4.68-.19-.86-.54-1.29-1.05-1.29s-.86.43-1.06,1.28c-.19.85-.29,2.38-.29,4.59s.1,3.75.29,4.61c.2.85.55,1.28,1.06,1.28s.85-.42,1.04-1.27c.2-.81.3-2.31.3-4.52Z" fill="#919191" opacity=".5" stroke-width="0"/>
    <path d="M698.39,361.25c0,2.68-.26,4.62-.77,5.8-.51,1.15-1.38,1.72-2.6,1.72s-2.1-.58-2.61-1.73c-.51-1.12-.76-3.09-.76-5.91s.25-4.79.76-5.91c.51-1.16,1.38-1.74,2.6-1.74,1.13,0,1.97.51,2.52,1.53.58,1.08.87,3.16.87,6.24ZM696.34,361.25c0-2.26-.1-3.82-.29-4.68-.19-.86-.54-1.29-1.05-1.29s-.86.43-1.06,1.28c-.19.85-.29,2.38-.29,4.59s.1,3.75.29,4.61c.2.85.55,1.28,1.06,1.28s.85-.42,1.04-1.27c.2-.81.3-2.31.3-4.52Z" fill="#919191" opacity=".5" stroke-width="0"/>
  </g>
  <g>
    <path d="M780.97,359.12h-1.97l-.02-.59c0-1.63.25-2.78.74-3.44.5-.67,1.33-1.01,2.5-1.01,2.2,0,3.3,1.22,3.3,3.66,0,1.64-.82,4.01-2.47,7.11l-1.19,2.23s-.03.05-.06.12-.08.16-.13.28h3.7v1.72h-6.56c.11-.25.34-.73.69-1.46.35-.73.82-1.71,1.42-2.95.51-1.08.94-2,1.28-2.76s.6-1.37.77-1.86c.35-.97.52-1.8.52-2.51,0-1.24-.43-1.86-1.29-1.86s-1.24.77-1.24,2.3v.85s.02.15.02.15Z" fill="#5b8f77" opacity=".5" stroke-width="0"/>
    <path d="M793.73,361.84c0,2.68-.26,4.62-.77,5.8-.51,1.15-1.38,1.72-2.6,1.72s-2.1-.58-2.61-1.73c-.51-1.12-.76-3.09-.76-5.91s.25-4.79.76-5.91c.51-1.16,1.38-1.74,2.6-1.74,1.13,0,1.97.51,2.52,1.53.58,1.08.87,3.16.87,6.24ZM791.67,361.84c0-2.26-.1-3.82-.29-4.68-.19-.86-.54-1.29-1.05-1.29s-.86.43-1.06,1.28c-.19.85-.29,2.38-.29,4.6s.1,3.75.29,4.6c.2.85.55,1.28,1.06,1.28s.85-.42,1.04-1.27c.2-.81.3-2.31.3-4.52Z" fill="#5b8f77" opacity=".5" stroke-width="0"/>
    <path d="M801.93,361.84c0,2.68-.26,4.62-.77,5.8-.51,1.15-1.38,1.72-2.6,1.72s-2.1-.58-2.61-1.73c-.51-1.12-.76-3.09-.76-5.91s.25-4.79.76-5.91c.51-1.16,1.38-1.74,2.6-1.74,1.13,0,1.97.51,2.52,1.53.58,1.08.87,3.16.87,6.24ZM799.88,361.84c0-2.26-.1-3.82-.29-4.68-.19-.86-.54-1.29-1.05-1.29s-.86.43-1.06,1.28c-.19.85-.29,2.38-.29,4.6s.1,3.75.29,4.6c.2.85.55,1.28,1.06,1.28s.85-.42,1.04-1.27c.2-.81.3-2.31.3-4.52Z" fill="#5b8f77" opacity=".5" stroke-width="0"/>
    <path d="M805.06,354.26h4.75v1.73h-3.22l-.48,3.75h.24c.59,0,1.11.09,1.56.28.45.19.84.46,1.15.82.31.36.54.81.71,1.34.16.53.24,1.13.24,1.81,0,1.68-.36,3-1.09,3.96-.73.95-1.74,1.42-3.04,1.42-.73,0-1.52-.21-2.37-.62l.5-1.78c.69.36,1.27.54,1.73.54.66,0,1.18-.3,1.57-.89.39-.6.58-1.41.58-2.42,0-1.92-.82-2.87-2.47-2.87-.41,0-.82.06-1.23.18l.87-7.26Z" fill="#5b8f77" opacity=".5" stroke-width="0"/>
  </g>
  <g>
    <path d="M892.57,358.39h-1.97l-.02-.59c0-1.63.25-2.78.74-3.44.5-.67,1.33-1.01,2.5-1.01,2.2,0,3.3,1.22,3.3,3.66,0,1.64-.82,4.01-2.47,7.11l-1.19,2.23s-.03.05-.06.12-.08.16-.13.28h3.7v1.72h-6.56c.11-.25.34-.73.69-1.46.35-.73.82-1.71,1.42-2.95.51-1.08.94-2,1.28-2.76.34-.75.6-1.37.77-1.86.35-.97.52-1.8.52-2.51,0-1.24-.43-1.86-1.29-1.86s-1.24.77-1.24,2.3v.85s.02.15.02.15Z" fill="#01608a" opacity=".5" stroke-width="0"/>
    <path d="M905.33,361.12c0,2.68-.26,4.62-.77,5.8-.51,1.15-1.38,1.72-2.6,1.72s-2.1-.58-2.61-1.73c-.51-1.12-.76-3.09-.76-5.91s.25-4.79.76-5.91c.51-1.16,1.38-1.74,2.6-1.74,1.13,0,1.97.51,2.52,1.53.58,1.08.87,3.16.87,6.24ZM903.28,361.12c0-2.26-.1-3.82-.29-4.68-.19-.86-.54-1.29-1.05-1.29s-.86.43-1.06,1.28c-.19.85-.29,2.38-.29,4.6s.1,3.75.29,4.6c.2.85.55,1.28,1.06,1.28s.85-.42,1.04-1.27c.2-.81.3-2.31.3-4.52Z" fill="#01608a" opacity=".5" stroke-width="0"/>
    <path d="M906.99,353.53h3.41v14.94h-1.93v-13.22h-1.48v-1.71Z" fill="#01608a" opacity=".5" stroke-width="0"/>
    <path d="M919.9,361.12c0,2.68-.26,4.62-.77,5.8-.51,1.15-1.38,1.72-2.6,1.72s-2.1-.58-2.61-1.73c-.51-1.12-.76-3.09-.76-5.91s.25-4.79.76-5.91c.51-1.16,1.38-1.74,2.6-1.74,1.13,0,1.97.51,2.52,1.53.58,1.08.87,3.16.87,6.24ZM917.85,361.12c0-2.26-.1-3.82-.29-4.68-.19-.86-.54-1.29-1.05-1.29s-.86.43-1.06,1.28c-.19.85-.29,2.38-.29,4.6s.1,3.75.29,4.6c.2.85.55,1.28,1.06,1.28s.85-.42,1.04-1.27c.2-.81.3-2.31.3-4.52Z" fill="#01608a" opacity=".5" stroke-width="0"/>
  </g>
  <g>
    <path d="M1002.84,358.65h-1.97l-.02-.59c0-1.63.25-2.78.74-3.44.5-.67,1.33-1.01,2.5-1.01,2.2,0,3.3,1.22,3.3,3.66,0,1.64-.82,4.01-2.47,7.11l-1.19,2.23s-.03.05-.06.12-.08.16-.13.28h3.7v1.72h-6.56c.11-.25.34-.73.69-1.46.35-.73.82-1.71,1.42-2.95.51-1.08.94-2,1.28-2.76.34-.75.6-1.37.77-1.86.35-.97.52-1.8.52-2.51,0-1.24-.43-1.86-1.29-1.86s-1.24.77-1.24,2.3v.85s.02.15.02.15Z" fill="#d86c01" opacity=".5" stroke-width="0"/>
    <path d="M1015.6,361.38c0,2.68-.26,4.62-.77,5.8-.51,1.15-1.38,1.72-2.6,1.72s-2.1-.58-2.61-1.73c-.51-1.12-.76-3.09-.76-5.91s.25-4.79.76-5.91c.51-1.16,1.38-1.74,2.6-1.74,1.13,0,1.97.51,2.52,1.53.58,1.08.87,3.16.87,6.24ZM1013.55,361.38c0-2.26-.1-3.82-.29-4.68-.19-.86-.54-1.29-1.05-1.29s-.86.43-1.06,1.28c-.19.85-.29,2.38-.29,4.6s.1,3.75.29,4.6c.2.85.55,1.28,1.06,1.28s.85-.42,1.04-1.27c.2-.81.3-2.31.3-4.52Z" fill="#d86c01" opacity=".5" stroke-width="0"/>
    <path d="M1017.26,353.79h3.41v14.94h-1.93v-13.22h-1.48v-1.71Z" fill="#d86c01" opacity=".5" stroke-width="0"/>
    <path d="M1024.88,353.79h4.75v1.73h-3.22l-.48,3.75h.24c.59,0,1.11.09,1.56.28.45.19.84.46,1.15.82s.54.81.71,1.34c.16.53.24,1.13.24,1.81,0,1.68-.36,3-1.09,3.96-.73.95-1.74,1.42-3.04,1.42-.73,0-1.52-.21-2.37-.62l.5-1.78c.69.36,1.27.54,1.73.54.66,0,1.18-.3,1.57-.89.39-.6.58-1.41.58-2.42,0-1.92-.82-2.87-2.47-2.87-.41,0-.82.06-1.23.18l.87-7.26Z" fill="#d86c01" opacity=".5" stroke-width="0"/>
  </g>
  <g>
    <path d="M1111.09,358.39h-1.97l-.02-.59c0-1.63.25-2.78.74-3.44.5-.67,1.33-1.01,2.5-1.01,2.2,0,3.3,1.22,3.3,3.66,0,1.64-.82,4.01-2.47,7.11l-1.19,2.23s-.03.05-.06.12-.08.16-.13.28h3.7v1.72h-6.56c.11-.25.34-.73.69-1.46.35-.73.82-1.71,1.42-2.95.51-1.08.94-2,1.28-2.76.34-.75.6-1.37.77-1.86.35-.97.52-1.8.52-2.51,0-1.24-.43-1.86-1.29-1.86s-1.24.77-1.24,2.3v.85s.02.15.02.15Z" fill="#8b3076" opacity=".5" stroke-width="0"/>
    <path d="M1123.85,361.12c0,2.68-.26,4.62-.77,5.8-.51,1.15-1.38,1.72-2.6,1.72s-2.1-.58-2.61-1.73c-.51-1.12-.76-3.09-.76-5.91s.25-4.79.76-5.91c.51-1.16,1.38-1.74,2.6-1.74,1.13,0,1.97.51,2.52,1.53.58,1.08.87,3.16.87,6.24ZM1121.8,361.12c0-2.26-.1-3.82-.29-4.68-.19-.86-.54-1.29-1.05-1.29s-.86.43-1.06,1.28c-.19.85-.29,2.38-.29,4.6s.1,3.75.29,4.6c.2.85.55,1.28,1.06,1.28s.85-.42,1.04-1.27c.2-.81.3-2.31.3-4.52Z" fill="#8b3076" opacity=".5" stroke-width="0"/>
    <path d="M1127.5,358.39h-1.97l-.02-.59c0-1.63.25-2.78.74-3.44.5-.67,1.33-1.01,2.5-1.01,2.2,0,3.3,1.22,3.3,3.66,0,1.64-.82,4.01-2.47,7.11l-1.19,2.23s-.03.05-.06.12-.08.16-.13.28h3.7v1.72h-6.56c.11-.25.34-.73.69-1.46.35-.73.82-1.71,1.42-2.95.51-1.08.94-2,1.28-2.76.34-.75.6-1.37.77-1.86.35-.97.52-1.8.52-2.51,0-1.24-.43-1.86-1.29-1.86s-1.24.77-1.24,2.3v.85s.02.15.02.15Z" fill="#8b3076" opacity=".5" stroke-width="0"/>
    <path d="M1140.26,361.12c0,2.68-.26,4.62-.77,5.8-.51,1.15-1.38,1.72-2.6,1.72s-2.1-.58-2.61-1.73c-.51-1.12-.76-3.09-.76-5.91s.25-4.79.76-5.91c.51-1.16,1.38-1.74,2.6-1.74,1.13,0,1.97.51,2.52,1.53.58,1.08.87,3.16.87,6.24ZM1138.21,361.12c0-2.26-.1-3.82-.29-4.68-.19-.86-.54-1.29-1.05-1.29s-.86.43-1.06,1.28c-.19.85-.29,2.38-.29,4.6s.1,3.75.29,4.6c.2.85.55,1.28,1.06,1.28s.85-.42,1.04-1.27c.2-.81.3-2.31.3-4.52Z" fill="#8b3076" opacity=".5" stroke-width="0"/>
  </g>
  <line x1="242.48" y1="231.72" x2="242.48" y2="225.12" fill="#fff" opacity=".5" stroke="#003d2b" stroke-miterlimit="10" stroke-width=".5"/>
  <line x1="241.6" y1="484.34" x2="241.6" y2="477.74" fill="#fff" opacity=".5" stroke="#003d2b" stroke-miterlimit="10" stroke-width=".5"/>
  <line x1="355.29" y1="231.68" x2="355.29" y2="225.08" fill="#fff" opacity=".5" stroke="#003d2b" stroke-miterlimit="10" stroke-width=".5"/>
  <line x1="354.32" y1="484.16" x2="354.32" y2="477.56" fill="#fff" opacity=".5" stroke="#003d2b" stroke-miterlimit="10" stroke-width=".5"/>
  <line x1="464.23" y1="231.68" x2="464.23" y2="225.08" fill="#fff" opacity=".5" stroke="#003d2b" stroke-miterlimit="10" stroke-width=".5"/>
  <line x1="575.68" y1="232.04" x2="575.68" y2="225.43" fill="#fff" opacity=".5" stroke="#003d2b" stroke-miterlimit="10" stroke-width=".5"/>
  <line x1="465.19" y1="483.68" x2="465.19" y2="477.08" fill="#fff" opacity=".5" stroke="#003d2b" stroke-miterlimit="10" stroke-width=".5"/>
  <line x1="574.49" y1="484.16" x2="574.49" y2="477.56" fill="#fff" opacity=".5" stroke="#003d2b" stroke-miterlimit="10" stroke-width=".5"/>
  <line x1="683.91" y1="484.16" x2="683.91" y2="477.56" fill="#fff" opacity=".5" stroke="#003d2b" stroke-miterlimit="10" stroke-width=".5"/>
  <line x1="795.01" y1="484.52" x2="795.01" y2="477.91" fill="#fff" opacity=".5" stroke="#003d2b" stroke-miterlimit="10" stroke-width=".5"/>
  <line x1="903.64" y1="483.68" x2="903.64" y2="477.08" fill="#fff" opacity=".5" stroke="#003d2b" stroke-miterlimit="10" stroke-width=".5"/>
  <line x1="1016.89" y1="483.68" x2="1016.89" y2="477.08" fill="#fff" opacity=".5" stroke="#003d2b" stroke-miterlimit="10" stroke-width=".5"/>
  <line x1="1126.32" y1="484.16" x2="1126.32" y2="477.56" fill="#fff" opacity=".5" stroke="#003d2b" stroke-miterlimit="10" stroke-width=".5"/>
  <line x1="683.78" y1="231.68" x2="683.78" y2="225.08" fill="#fff" opacity=".5" stroke="#003d2b" stroke-miterlimit="10" stroke-width=".5"/>
  <line x1="795.37" y1="232.17" x2="795.37" y2="225.56" fill="#fff" opacity=".5" stroke="#003d2b" stroke-miterlimit="10" stroke-width=".5"/>
  <line x1="904.31" y1="232.17" x2="904.31" y2="225.56" fill="#fff" opacity=".5" stroke="#003d2b" stroke-miterlimit="10" stroke-width=".5"/>
  <line x1="1016.73" y1="231.68" x2="1016.73" y2="225.08" fill="#fff" opacity=".5" stroke="#003d2b" stroke-miterlimit="10" stroke-width=".5"/>
  <line x1="1126.8" y1="232.17" x2="1126.8" y2="225.56" fill="#fff" opacity=".5" stroke="#003d2b" stroke-miterlimit="10" stroke-width=".5"/>
  <g>
    <path d="M97.03,198.1h3.53c1.7,0,2.94.43,3.71,1.29.77.87,1.16,2.24,1.16,4.13,0,2.65-.78,4.36-2.33,5.13-.78.35-1.91.53-3.39.53v8.83h-2.68v-19.91ZM99.72,206.88c1.11,0,1.87-.22,2.3-.67.43-.46.64-1.26.64-2.42s-.21-2.06-.62-2.61c-.41-.55-1.06-.83-1.95-.83h-.37v6.53Z" fill="#003d2b" opacity=".5" stroke-width="0"/>
    <path d="M107.51,198.1h3.53c1.46,0,2.55.35,3.26,1.04.9.9,1.35,2.28,1.35,4.14,0,1.43-.24,2.57-.72,3.44-.48.86-1.16,1.4-2.04,1.61l3.66,9.69h-2.72l-3.65-9.75v9.75h-2.68v-19.91ZM110.19,206.92c1.04,0,1.78-.24,2.21-.72.43-.48.64-1.29.64-2.44,0-.62-.04-1.15-.14-1.59s-.23-.79-.43-1.07c-.19-.28-.44-.48-.75-.61s-.67-.19-1.09-.19h-.45v6.62Z" fill="#003d2b" opacity=".5" stroke-width="0"/>
    <path d="M118.64,198.1h2.68v19.91h-2.68v-19.91Z" fill="#003d2b" opacity=".5" stroke-width="0"/>
    <path d="M122.8,198.1h2.64l1.2,7.35.21,1.33.43,2.89c.07.49.13.94.19,1.34.06.4.11.77.15,1.1l.13.98c.03-.2.05-.37.06-.53s.03-.28.05-.39l.35-2.31.45-3.03c.04-.27.08-.53.12-.76.04-.23.08-.44.11-.62l1.29-7.35h2.5l-3.91,19.91h-2.13l-3.84-19.91Z" fill="#003d2b" opacity=".5" stroke-width="0"/>
    <path d="M136.52,198.1h2.09l4.27,19.91h-2.66l-.75-3.88h-3.95l-.76,3.88h-2.58l4.33-19.91ZM139.08,212.05l-.59-3.17c-.4-2.16-.72-4.46-.97-6.91-.12,1.2-.28,2.41-.46,3.63-.19,1.23-.41,2.53-.67,3.9l-.49,2.55h3.19Z" fill="#003d2b" opacity=".5" stroke-width="0"/>
    <path d="M142.44,198.1h8.73v2.35h-3v17.57h-2.63v-17.57h-3.1v-2.35Z" fill="#003d2b" opacity=".5" stroke-width="0"/>
    <path d="M152.65,198.1h7.13v2.27h-4.45v6.31h3.95v2.27h-3.95v6.8h4.45v2.27h-7.13v-19.91Z" fill="#003d2b" opacity=".5" stroke-width="0"/>
    <path d="M95.49,229.79h2.59l1.35,9.25.22,1.37c.1.74.18,1.41.23,2.02l.14,1.69s.02.12.03.23.02.25.04.43l.06-.64c.1-1.13.21-2.16.33-3.11s.24-1.82.38-2.62l1.43-8.62h2.06l1.34,8.37c.2,1.24.36,2.39.5,3.44s.24,2.07.33,3.03c.09-1.01.18-1.99.29-2.94.11-.95.22-1.87.34-2.79l.19-1.33,1.15-7.79h2.57l-3.52,19.91h-2.09l-1.41-8.6s-.03-.18-.06-.43c-.03-.25-.09-.61-.15-1.07l-.27-1.99c-.02-.15-.04-.39-.08-.7-.04-.31-.08-.7-.12-1.17l-.06-.83c-.02.2-.03.37-.05.52-.02.15-.03.27-.04.36-.04.57-.08,1.01-.11,1.32-.03.31-.05.51-.06.57l-.27,1.91c-.06.44-.11.78-.14,1.03-.03.25-.06.4-.08.46l-1.46,8.6h-2.15l-3.44-19.91Z" fill="#003d2b" opacity=".5" stroke-width="0"/>
    <path d="M112.64,229.79h7.13v2.27h-4.45v6.31h3.95v2.27h-3.95v6.8h4.45v2.27h-7.13v-19.91Z" fill="#003d2b" opacity=".5" stroke-width="0"/>
    <path d="M125.07,229.79h2.09l4.27,19.91h-2.66l-.75-3.88h-3.95l-.76,3.88h-2.58l4.33-19.91ZM127.64,243.75l-.59-3.17c-.4-2.16-.72-4.46-.97-6.91-.12,1.2-.28,2.41-.46,3.63-.19,1.23-.41,2.53-.67,3.9l-.49,2.55h3.19Z" fill="#003d2b" opacity=".5" stroke-width="0"/>
    <path d="M133.01,229.79h2.68v17.64h4.39v2.27h-7.07v-19.91Z" fill="#003d2b" opacity=".5" stroke-width="0"/>
    <path d="M139.71,229.79h8.73v2.35h-3v17.57h-2.63v-17.57h-3.1v-2.35Z" fill="#003d2b" opacity=".5" stroke-width="0"/>
    <path d="M149.93,229.79h2.68v7.79h3.93v-7.79h2.68v19.91h-2.68v-9.85h-3.93v9.85h-2.68v-19.91Z" fill="#003d2b" opacity=".5" stroke-width="0"/>
  </g>
  <g>
    <path d="M103.06,448.73h3.53c1.7,0,2.94.43,3.71,1.29.77.87,1.16,2.24,1.16,4.13,0,2.65-.78,4.36-2.33,5.13-.78.35-1.91.53-3.39.53v8.83h-2.68v-19.91ZM105.74,457.52c1.11,0,1.87-.22,2.3-.67.43-.46.64-1.26.64-2.42s-.21-2.05-.62-2.61c-.41-.55-1.06-.83-1.95-.83h-.37v6.53Z" fill="#003d2b" opacity=".5" stroke-width="0"/>
    <path d="M113.53,448.73h2.63v14.07c0,1.44.13,2.39.39,2.86.27.47.79.71,1.57.71s1.3-.21,1.55-.62c.26-.42.39-1.28.39-2.57v-14.46h2.63v14.46c0,2.17-.33,3.63-.99,4.4-.79.87-2,1.3-3.62,1.3-1.79,0-3.05-.56-3.78-1.68-.51-.77-.76-2.24-.76-4.41v-14.07Z" fill="#003d2b" opacity=".5" stroke-width="0"/>
    <path d="M125.76,448.73h3.64c2.85,0,4.27,1.77,4.27,5.3,0,1.35-.19,2.35-.55,3s-1.02,1.15-1.96,1.48c1.07.43,1.81.98,2.21,1.65.4.66.61,1.66.61,2.99,0,3.65-1.56,5.48-4.69,5.48h-3.51v-19.91ZM128.29,457.5c1.04,0,1.76-.24,2.17-.72.4-.51.61-1.4.61-2.67,0-2.15-.77-3.22-2.32-3.22h-.32c-.07,0-.11,0-.13.01v6.6ZM128.29,466.35c1.1,0,1.86-.24,2.28-.71s.63-1.33.63-2.57-.22-2.16-.66-2.67c-.43-.52-1.18-.77-2.26-.77v6.72Z" fill="#003d2b" opacity=".5" stroke-width="0"/>
    <path d="M136.63,448.73h2.68v17.64h4.39v2.27h-7.07v-19.91Z" fill="#003d2b" opacity=".5" stroke-width="0"/>
    <path d="M145.37,448.73h2.68v19.91h-2.68v-19.91Z" fill="#003d2b" opacity=".5" stroke-width="0"/>
    <path d="M158.94,449.06v2.41c-.69-.34-1.26-.5-1.73-.5-.64,0-1.18.16-1.64.47-.46.31-.83.8-1.13,1.45-.3.65-.52,1.48-.66,2.48-.14,1-.21,2.19-.21,3.55,0,4.92,1.26,7.38,3.78,7.38.44,0,.97-.14,1.59-.41v2.46c-.65.36-1.37.54-2.17.54-4.03,0-6.05-3.29-6.05-9.88,0-3.56.49-6.21,1.48-7.95.98-1.74,2.49-2.61,4.52-2.61.75,0,1.49.2,2.22.59Z" fill="#003d2b" opacity=".5" stroke-width="0"/>
    <path d="M97.97,480.43h2.59l1.35,9.25.22,1.37c.1.74.18,1.42.23,2.03l.14,1.69s.02.12.03.23.02.25.04.43l.06-.65c.1-1.13.21-2.16.33-3.11.12-.95.24-1.82.38-2.62l1.43-8.62h2.06l1.34,8.37c.2,1.24.36,2.39.5,3.44s.24,2.07.33,3.03c.09-1.01.18-1.99.29-2.94.11-.95.22-1.87.34-2.79l.19-1.33,1.15-7.79h2.57l-3.52,19.91h-2.09l-1.41-8.6s-.03-.18-.06-.43c-.03-.25-.09-.61-.15-1.07l-.27-1.99c-.02-.16-.04-.39-.08-.7-.04-.31-.08-.7-.12-1.17l-.06-.83c-.02.2-.03.37-.05.52-.02.15-.03.27-.04.36-.04.57-.08,1.01-.11,1.32-.03.31-.05.5-.06.57l-.27,1.91c-.06.44-.11.78-.14,1.03-.03.25-.06.4-.08.46l-1.46,8.6h-2.15l-3.44-19.91Z" fill="#003d2b" opacity=".5" stroke-width="0"/>
    <path d="M115.13,480.43h7.13v2.27h-4.45v6.31h3.95v2.27h-3.95v6.8h4.45v2.27h-7.13v-19.91Z" fill="#003d2b" opacity=".5" stroke-width="0"/>
    <path d="M127.56,480.43h2.09l4.27,19.91h-2.66l-.75-3.88h-3.95l-.76,3.88h-2.58l4.33-19.91ZM130.13,494.39l-.59-3.17c-.4-2.16-.72-4.46-.97-6.91-.12,1.2-.28,2.41-.46,3.63-.19,1.22-.41,2.53-.67,3.9l-.49,2.55h3.19Z" fill="#003d2b" opacity=".5" stroke-width="0"/>
    <path d="M135.49,480.43h2.68v17.64h4.39v2.27h-7.07v-19.91Z" fill="#003d2b" opacity=".5" stroke-width="0"/>
    <path d="M142.2,480.43h8.73v2.35h-3v17.57h-2.63v-17.57h-3.1v-2.35Z" fill="#003d2b" opacity=".5" stroke-width="0"/>
    <path d="M152.42,480.43h2.68v7.79h3.93v-7.79h2.68v19.91h-2.68v-9.85h-3.93v9.85h-2.68v-19.91Z" fill="#003d2b" opacity=".5" stroke-width="0"/>
  </g>
</svg>